<svg width="42" height="42" viewBox="0 0 42 42" fill="none" xmlns="http://www.w3.org/2000/svg">
<path d="M36.0938 4.59375H5.90625C5.18027 4.59375 4.59375 5.18027 4.59375 5.90625V36.0938C4.59375 36.8197 5.18027 37.4062 5.90625 37.4062H36.0938C36.8197 37.4062 37.4062 36.8197 37.4062 36.0938V5.90625C37.4062 5.18027 36.8197 4.59375 36.0938 4.59375ZM16.5703 28.0137V31.1719C16.5703 31.3523 16.4227 31.5 16.2422 31.5H14.2734C14.093 31.5 13.9453 31.3523 13.9453 31.1719V28.0137C12.235 27.4559 10.9922 25.848 10.9922 23.9531C10.9922 22.0582 12.235 20.4463 13.9453 19.8926V10.8281C13.9453 10.6477 14.093 10.5 14.2734 10.5H16.2422C16.4227 10.5 16.5703 10.6477 16.5703 10.8281V19.8926C18.2807 20.4504 19.5234 22.0582 19.5234 23.9531C19.5234 25.848 18.2807 27.46 16.5703 28.0137ZM28.0383 22.1115C28.0465 22.1115 28.0506 22.1074 28.0547 22.1074V31.1719C28.0547 31.3523 27.907 31.5 27.7266 31.5H25.7578C25.5773 31.5 25.4297 31.3523 25.4297 31.1719V22.1074C25.4379 22.1074 25.442 22.1115 25.4461 22.1115C23.7234 21.5619 22.4766 19.95 22.4766 18.0469C22.4766 16.1437 23.7234 14.5318 25.4461 13.9822C25.4379 13.9822 25.4338 13.9863 25.4297 13.9863V10.8281C25.4297 10.6477 25.5773 10.5 25.7578 10.5H27.7266C27.907 10.5 28.0547 10.6477 28.0547 10.8281V13.9863C28.0465 13.9863 28.0424 13.9822 28.0383 13.9822C29.7609 14.5318 31.0078 16.1437 31.0078 18.0469C31.0078 19.95 29.7609 21.5619 28.0383 22.1115ZM25.2656 18.0469C25.2656 18.4385 25.4212 18.8141 25.6981 19.091C25.975 19.3679 26.3506 19.5234 26.7422 19.5234C27.1338 19.5234 27.5094 19.3679 27.7863 19.091C28.0632 18.8141 28.2188 18.4385 28.2188 18.0469C28.2188 17.6553 28.0632 17.2797 27.7863 17.0028C27.5094 16.7259 27.1338 16.5703 26.7422 16.5703C26.3506 16.5703 25.975 16.7259 25.6981 17.0028C25.4212 17.2797 25.2656 17.6553 25.2656 18.0469ZM16.5457 23.2354L16.4842 23.1369C16.4842 23.1328 16.4801 23.1328 16.4801 23.1287L16.4432 23.0795C16.4391 23.0754 16.435 23.0713 16.435 23.0672C16.3939 23.0139 16.3529 22.9646 16.3037 22.9195L16.2955 22.9113C16.2791 22.8949 16.2627 22.8785 16.2463 22.8662C16.2135 22.8334 16.1766 22.8047 16.1396 22.7801H16.1355L16.0863 22.7432C16.0822 22.7391 16.074 22.735 16.0699 22.7309C16.0207 22.698 15.9674 22.6652 15.91 22.6406C15.9018 22.6365 15.8895 22.6324 15.8813 22.6242C15.8648 22.616 15.8525 22.6119 15.8361 22.6037C15.8238 22.5996 15.8074 22.5914 15.7951 22.5873C15.7746 22.5791 15.7541 22.5709 15.7336 22.5668C15.7172 22.5627 15.6967 22.5545 15.6803 22.5504L15.6434 22.5381L15.5859 22.5258C15.5777 22.5217 15.5654 22.5217 15.5572 22.5176C15.5285 22.5135 15.4998 22.5053 15.4711 22.5012C15.4629 22.5012 15.4547 22.5012 15.4465 22.4971C15.4219 22.493 15.4014 22.493 15.3768 22.4889C15.3686 22.4889 15.3604 22.4889 15.348 22.4848C15.3152 22.4848 15.2865 22.4807 15.2537 22.4807C15.2209 22.4807 15.1922 22.4807 15.1594 22.4848C15.1512 22.4848 15.143 22.4848 15.1307 22.4889C15.1061 22.4889 15.0814 22.493 15.0609 22.4971C15.0527 22.4971 15.0445 22.4971 15.0363 22.5012C15.0076 22.5053 14.9789 22.5094 14.9502 22.5176C14.942 22.5217 14.9297 22.5217 14.9215 22.5258L14.8641 22.5381L14.8271 22.5504C14.8107 22.5545 14.7902 22.5627 14.7738 22.5668C14.7533 22.575 14.7328 22.5832 14.7123 22.5873C14.7 22.5914 14.6836 22.5996 14.6713 22.6037C14.6549 22.6119 14.6426 22.616 14.6262 22.6242C14.618 22.6283 14.6057 22.6324 14.5975 22.6406C14.5441 22.6693 14.4908 22.698 14.4375 22.7309C14.4334 22.735 14.4252 22.7391 14.4211 22.7432L14.3719 22.7801H14.3678C14.3309 22.8088 14.2939 22.8375 14.2611 22.8662C14.2447 22.8826 14.2283 22.8949 14.2119 22.9113L14.2037 22.9195C14.1578 22.9668 14.114 23.0161 14.0725 23.0672C14.0684 23.0713 14.0643 23.0754 14.0643 23.0795L14.0273 23.1287C14.0273 23.1328 14.0232 23.1328 14.0232 23.1369L13.9617 23.2354C13.9576 23.2436 13.9535 23.2477 13.9494 23.2559C13.8387 23.465 13.773 23.7029 13.773 23.9531C13.773 24.2033 13.8387 24.4453 13.9494 24.6504C13.9535 24.6586 13.9576 24.6627 13.9617 24.6709L14.0232 24.7693C14.0232 24.7734 14.0273 24.7734 14.0273 24.7775L14.0643 24.8268C14.0684 24.8309 14.0725 24.835 14.0725 24.8391C14.1135 24.8924 14.1545 24.9416 14.2037 24.9867L14.2119 24.9949C14.2283 25.0113 14.2447 25.0277 14.2611 25.04C14.2939 25.0729 14.3309 25.1016 14.3678 25.1262H14.3719L14.4211 25.1631C14.4252 25.1672 14.4334 25.1713 14.4375 25.1754C14.4867 25.2082 14.54 25.241 14.5975 25.2656C14.6057 25.2697 14.618 25.2738 14.6262 25.282C14.6426 25.2902 14.6549 25.2943 14.6713 25.3025C14.6836 25.3066 14.7 25.3148 14.7123 25.3189C14.7328 25.3271 14.7533 25.3354 14.7738 25.3395C14.7902 25.3436 14.8107 25.3518 14.8271 25.3559L14.8641 25.3682L14.9215 25.3805C14.9297 25.3846 14.942 25.3846 14.9502 25.3887C14.9789 25.3928 15.0076 25.401 15.0363 25.4051C15.0445 25.4051 15.0527 25.4051 15.0609 25.4092C15.0855 25.4133 15.1061 25.4133 15.1307 25.4174C15.1389 25.4174 15.1471 25.4174 15.1594 25.4215C15.1922 25.4215 15.2209 25.4256 15.2537 25.4256C15.2865 25.4256 15.3152 25.4256 15.348 25.4215C15.3563 25.4215 15.3645 25.4215 15.3768 25.4174C15.4014 25.4174 15.426 25.4133 15.4465 25.4092C15.4547 25.4092 15.4629 25.4092 15.4711 25.4051C15.4998 25.401 15.5285 25.3969 15.5572 25.3887C15.5654 25.3846 15.5777 25.3846 15.5859 25.3805L15.6434 25.3682L15.6803 25.3559C15.6967 25.3518 15.7172 25.3436 15.7336 25.3395C15.7541 25.3312 15.7746 25.323 15.7951 25.3189C15.8074 25.3148 15.8238 25.3066 15.8361 25.3025C15.8525 25.2943 15.8648 25.2902 15.8813 25.282C15.8895 25.2779 15.9018 25.2738 15.91 25.2656C15.9633 25.2369 16.0166 25.2082 16.0699 25.1754C16.074 25.1713 16.0822 25.1672 16.0863 25.1631L16.1355 25.1262H16.1396C16.1766 25.0975 16.2135 25.0687 16.2463 25.04C16.2627 25.0236 16.2791 25.0113 16.2955 24.9949L16.3037 24.9867C16.3488 24.9416 16.3939 24.8883 16.435 24.8391C16.4391 24.835 16.4432 24.8309 16.4432 24.8268L16.4801 24.7775C16.4801 24.7734 16.4842 24.7734 16.4842 24.7693L16.5457 24.6709C16.5498 24.6627 16.5539 24.6586 16.558 24.6504C16.6688 24.4412 16.7344 24.2033 16.7344 23.9531C16.7344 23.7029 16.6688 23.4609 16.558 23.2559C16.5539 23.2477 16.5498 23.2395 16.5457 23.2354Z" fill="#002446"/>
</svg>
