<svg width="29" height="28" viewBox="0 0 29 28" fill="none" xmlns="http://www.w3.org/2000/svg">
<path d="M24.125 7H20.625V4.8125C20.625 3.84727 19.8402 3.0625 18.875 3.0625H10.125C9.15977 3.0625 8.375 3.84727 8.375 4.8125V7H4.875C4.39102 7 4 7.39102 4 7.875V8.75C4 8.87031 4.09844 8.96875 4.21875 8.96875H5.87031L6.5457 23.2695C6.58945 24.202 7.36055 24.9375 8.29297 24.9375H20.707C21.6422 24.9375 22.4105 24.2047 22.4543 23.2695L23.1297 8.96875H24.7812C24.9016 8.96875 25 8.87031 25 8.75V7.875C25 7.39102 24.609 7 24.125 7ZM18.6562 7H10.3438V5.03125H18.6562V7Z" fill="#888888"/>
</svg>
