<svg width="29" height="28" viewBox="0 0 29 28" fill="none" xmlns="http://www.w3.org/2000/svg">
<path d="M24.5625 22.8594H4.4375C3.95352 22.8594 3.5625 23.2504 3.5625 23.7344V24.7188C3.5625 24.8391 3.66094 24.9375 3.78125 24.9375H25.2188C25.3391 24.9375 25.4375 24.8391 25.4375 24.7188V23.7344C25.4375 23.2504 25.0465 22.8594 24.5625 22.8594ZM7.54648 20.5625C7.60117 20.5625 7.65586 20.557 7.71055 20.5488L12.3098 19.7422C12.3645 19.7312 12.4164 19.7066 12.4547 19.6656L24.0457 8.07461C24.0711 8.04931 24.0912 8.01927 24.1049 7.98619C24.1186 7.95311 24.1257 7.91765 24.1257 7.88184C24.1257 7.84602 24.1186 7.81056 24.1049 7.77749C24.0912 7.74441 24.0711 7.71436 24.0457 7.68906L19.5012 3.1418C19.4492 3.08984 19.3809 3.0625 19.307 3.0625C19.2332 3.0625 19.1648 3.08984 19.1129 3.1418L7.52187 14.7328C7.48086 14.7738 7.45625 14.823 7.44531 14.8777L6.63867 19.477C6.61207 19.6234 6.62158 19.7742 6.66636 19.9162C6.71115 20.0582 6.78987 20.1871 6.8957 20.2918C7.07617 20.4668 7.30313 20.5625 7.54648 20.5625V20.5625Z" fill="#888888"/>
</svg>
