<svg width="42" height="42" viewBox="0 0 42 42" fill="none" xmlns="http://www.w3.org/2000/svg">
<path d="M38.8213 20.7129L21.9269 3.83085C21.8053 3.70897 21.6608 3.61228 21.5017 3.5463C21.3427 3.48032 21.1722 3.44637 21 3.44637C20.8278 3.44637 20.6573 3.48032 20.4982 3.5463C20.3392 3.61228 20.1947 3.70897 20.073 3.83085L3.17869 20.7129C2.6865 21.2051 2.40759 21.8736 2.40759 22.5709C2.40759 24.0187 3.58474 25.1959 5.03259 25.1959H6.81267V37.2422C6.81267 37.9682 7.39919 38.5547 8.12517 38.5547H18.375V29.3672H22.9687V38.5547H33.8748C34.6008 38.5547 35.1873 37.9682 35.1873 37.2422V25.1959H36.9674C37.6646 25.1959 38.3332 24.9211 38.8254 24.4248C39.8467 23.3994 39.8467 21.7383 38.8213 20.7129V20.7129Z" fill="#002446"/>
</svg>
