<svg width="56" height="56" viewBox="0 0 56 56" fill="none" xmlns="http://www.w3.org/2000/svg">
<path d="M30.8345 44.9562C30.8848 39.8162 29.5816 35.6364 27.924 35.6201C26.2663 35.604 24.8818 39.7576 24.8316 44.8975C24.7813 50.0376 26.0844 54.2175 27.742 54.2336C29.3997 54.2499 30.7843 50.0962 30.8345 44.9562Z" fill="white"/>
<path d="M21.2206 43.7889C24.042 39.4921 25.2058 35.2713 23.8202 34.3614C22.4344 33.4515 19.0239 36.1971 16.2026 40.4938C13.3812 44.7906 12.2174 49.0113 13.6031 49.9213C14.9889 50.8312 18.3993 48.0856 21.2206 43.7889Z" fill="white"/>
<path d="M13.7527 37.6242C18.4493 35.5352 21.7104 32.6137 21.0366 31.0991C20.363 29.5844 16.0095 30.0501 11.3129 32.1392C6.61635 34.2282 3.35521 37.1496 4.02895 38.6643C4.70268 40.179 9.05616 39.7133 13.7527 37.6242Z" fill="white"/>
<path d="M20.473 26.8515C20.7252 25.213 16.8111 23.2509 11.7308 22.4689C6.65034 21.6869 2.32743 22.3813 2.07525 24.0198C1.82307 25.6582 5.73712 27.6202 10.8175 28.4022C15.8979 29.1842 20.2208 28.4898 20.473 26.8515Z" fill="white"/>
<path d="M22.297 22.9482C23.3948 21.7061 21.1624 17.9397 17.3108 14.5357C13.4593 11.1317 9.44699 9.37916 8.34919 10.6213C7.25139 11.8635 9.48378 15.6299 13.3354 19.0339C17.187 22.438 21.1992 24.1904 22.297 22.9482Z" fill="white"/>
<path d="M25.9295 20.6671C27.5246 20.2158 27.6831 15.8403 26.2836 10.8943C24.884 5.94825 22.4563 2.30462 20.8612 2.756C19.2661 3.20737 19.1076 7.5828 20.5072 12.5289C21.9067 17.4748 24.3344 21.1185 25.9295 20.6671Z" fill="white"/>
<path d="M35.7934 12.6828C37.2903 7.76529 37.2182 3.38757 35.6323 2.90484C34.0463 2.4221 31.5473 6.01714 30.0504 10.9346C28.5536 15.852 28.6258 20.2298 30.2117 20.7125C31.7976 21.1952 34.2967 17.6002 35.7934 12.6828Z" fill="white"/>
<path d="M42.8416 19.3273C46.759 15.9992 49.0646 12.2771 47.9912 11.0138C46.9179 9.75042 42.8722 11.4242 38.9548 14.7522C35.0374 18.0803 32.7319 21.8024 33.8052 23.0657C34.8785 24.3291 38.9243 22.6554 42.8416 19.3273Z" fill="white"/>
<path d="M45.1721 28.7301C50.2669 28.0485 54.2189 26.164 53.999 24.5208C53.7793 22.8778 49.4709 22.0984 44.376 22.7799C39.2812 23.4615 35.3292 25.346 35.549 26.9892C35.7689 28.6322 40.0772 29.4117 45.1721 28.7301Z" fill="white"/>
<path d="M51.7445 39.1339C52.4479 37.6329 49.2451 34.6478 44.5906 32.4664C39.9362 30.2851 35.5927 29.7338 34.8892 31.2348C34.1858 32.7359 37.3886 35.721 42.0431 37.9024C46.6975 40.0836 51.041 40.6351 51.7445 39.1339Z" fill="white"/>
<path d="M41.954 50.2095C43.3574 49.3271 42.277 45.0841 39.541 40.7326C36.8049 36.3811 33.4492 33.5689 32.0458 34.4512C30.6424 35.3335 31.7228 39.5765 34.4588 43.9281C37.1949 48.2796 40.5506 51.0919 41.954 50.2095Z" fill="white"/>
</svg>
