<svg width="42" height="42" viewBox="0 0 42 42" fill="none" xmlns="http://www.w3.org/2000/svg">
<path d="M21.0205 16.0207C19.7941 16.0207 18.6457 16.4965 17.7762 17.366C16.9107 18.2355 16.4308 19.384 16.4308 20.6103C16.4308 21.8367 16.9107 22.9851 17.7762 23.8547C18.6457 24.7201 19.7941 25.2 21.0205 25.2C22.2469 25.2 23.3953 24.7201 24.2648 23.8547C25.1303 22.9851 25.6101 21.8367 25.6101 20.6103C25.6101 19.384 25.1303 18.2355 24.2648 17.366C23.8401 16.938 23.3346 16.5987 22.7777 16.3678C22.2207 16.1368 21.6234 16.0189 21.0205 16.0207V16.0207ZM37.9312 25.6799L35.2488 23.3871C35.376 22.6078 35.4416 21.8121 35.4416 21.0205C35.4416 20.2289 35.376 19.4291 35.2488 18.6539L37.9312 16.3611C38.1339 16.1877 38.2789 15.9566 38.347 15.6987C38.4152 15.4408 38.4032 15.1683 38.3127 14.9174L38.2758 14.8107C37.5375 12.7464 36.4314 10.8329 35.0109 9.16288L34.9371 9.07675C34.7646 8.87394 34.5347 8.72815 34.2777 8.65859C34.0207 8.58903 33.7487 8.59897 33.4975 8.6871L30.167 9.87245C28.9365 8.86347 27.5666 8.06777 26.0818 7.51406L25.4379 4.03183C25.3893 3.7695 25.262 3.52817 25.073 3.33989C24.884 3.15161 24.6422 3.02529 24.3797 2.97773L24.2689 2.95722C22.1361 2.57167 19.8885 2.57167 17.7557 2.95722L17.6449 2.97773C17.3824 3.02529 17.1406 3.15161 16.9516 3.33989C16.7625 3.52817 16.6353 3.7695 16.5867 4.03183L15.9387 7.53046C14.468 8.08859 13.0979 8.88236 11.8822 9.88066L8.52714 8.6871C8.27598 8.59827 8.00374 8.58797 7.74659 8.65757C7.48944 8.72717 7.25956 8.87337 7.08749 9.07675L7.01366 9.16288C5.59572 10.8346 4.48985 12.7477 3.74882 14.8107L3.7119 14.9174C3.52733 15.4301 3.67909 16.0043 4.09335 16.3611L6.80858 18.6785C6.68143 19.4496 6.61991 20.2371 6.61991 21.0164C6.61991 21.8039 6.68143 22.5914 6.80858 23.3543L4.10155 25.6717C3.89892 25.8451 3.75389 26.0762 3.68575 26.3341C3.61761 26.592 3.6296 26.8645 3.72011 27.1154L3.75702 27.2221C4.4994 29.2852 5.59452 31.1924 7.02186 32.8699L7.09569 32.956C7.26818 33.1589 7.49807 33.3047 7.75507 33.3742C8.01207 33.4438 8.28411 33.4338 8.53534 33.3457L11.8904 32.1521C13.1127 33.157 14.4744 33.9527 15.9469 34.5023L16.5949 38.001C16.6435 38.2633 16.7707 38.5046 16.9598 38.6929C17.1488 38.8812 17.3906 39.0075 17.6531 39.0551L17.7639 39.0756C19.9176 39.4632 22.1233 39.4632 24.2771 39.0756L24.3879 39.0551C24.6504 39.0075 24.8922 38.8812 25.0812 38.6929C25.2702 38.5046 25.3975 38.2633 25.4461 38.001L26.09 34.5187C27.5748 33.9609 28.9447 33.1693 30.1752 32.1603L33.5057 33.3457C33.7568 33.4345 34.0291 33.4448 34.2862 33.3752C34.5434 33.3056 34.7732 33.1594 34.9453 32.956L35.0191 32.8699C36.4465 31.1842 37.5416 29.2852 38.284 27.2221L38.3209 27.1154C38.4973 26.6068 38.3455 26.0367 37.9312 25.6799ZM21.0205 27.8209C17.0379 27.8209 13.81 24.593 13.81 20.6103C13.81 16.6277 17.0379 13.3998 21.0205 13.3998C25.0031 13.3998 28.231 16.6277 28.231 20.6103C28.231 24.593 25.0031 27.8209 21.0205 27.8209Z" fill="white"/>
</svg>
